<?xml version="1.0" encoding="UTF-8"?>
<svg width="412px" height="409px" viewBox="0 0 412 409" version="1.1" xmlns="http://www.w3.org/2000/svg" xmlns:xlink="http://www.w3.org/1999/xlink">
    <!-- Generator: Sketch 48.2 (47327) - http://www.bohemiancoding.com/sketch -->
    <title>tree</title>
    <desc>Created with Sketch.</desc>
    <defs></defs>
    <g id="Page-1" stroke="none" stroke-width="1" fill="none" fill-rule="evenodd">
        <g id="tree" transform="translate(1.000000, 1.000000)">
            <path d="M112.196499,189.298406 C131.455513,200.632966 148.796592,213.20124 164.219736,227.00323 C177.787272,239.144658 195.50516,258.972221 195.50516,272.409505 C195.50516,279.011725 195.50516,313.255091 195.50516,375.139604 C195.083565,381.671725 192.654298,387.537664 188.21736,392.737419 C183.780422,397.937174 175.781214,402.559453 164.219736,406.604256 L281.972053,406.604256 C272.419823,404.094263 264.34234,399.817334 257.739606,393.773469 C244.471288,381.628211 243.231083,369.718482 243.231083,364.503408 C243.231083,350.747107 243.231083,263.09145 243.231083,254.747361 C243.231083,248.136784 247.688914,234.436792 251.289392,227.00323 C255.468178,218.375693 259.377308,210.792438 265.829644,202.603523 C270.131202,197.144246 276.899871,190.833288 286.135653,183.670649 C267.467043,191.700232 254.66707,200.009938 247.735733,208.599768 C237.338727,221.484513 231.783754,231.663652 229.062343,242.213612 C228.351195,244.970484 228.013957,246.675833 227.06889,249.143804 C225.514475,251.547676 221.507624,251.547676 219.790548,251.547676 C215.544318,251.547676 212.304698,247.584643 208.32696,243.332898 C200.247793,234.697195 183.508854,219.914938 164.219736,207.904146 C148.675111,198.224944 131.334032,192.023031 112.196499,189.298406 Z" id="Path" stroke="#1B75BC" fill="#1B75BC"></path>
            <circle id="Oval" stroke="#1B75BC" fill="#1B75BC" cx="212.5" cy="207.5" r="20.5"></circle>
            <g id="leaves" fill="#1EB16E" stroke="#39A775">
                <path d="M0.471065398,101.902593 C14.9813088,103.795934 26.568047,108.799662 35.2312799,116.913777 C40.586063,121.929148 43.0173409,130.054907 42.5251135,141.291053 C31.2727401,141.315639 22.6461125,138.517674 16.6452309,132.897157 C8.62809652,125.388187 3.23670802,115.056666 0.471065398,101.902593 Z" id="Path-2"></path>
                <path d="M131,85.057439 C141.721735,86.6143684 150.283269,90.7290276 156.684601,97.4014166 C160.641293,101.52565 162.437783,108.207613 162.074073,117.447306 C153.759604,117.467524 147.38532,115.166705 142.95122,110.544849 C137.027296,104.370082 133.043555,95.8742792 131,85.057439 Z" id="Path-2" transform="translate(146.560000, 101.252439) rotate(9.000000) translate(-146.560000, -101.252439) "></path>
                <path d="M53.1898291,61.8624393 C68.0459084,63.8039145 79.9088039,68.9348526 88.7785156,77.2552537 C94.2609241,82.3981308 96.7501488,90.7304709 96.2461897,102.252274 C84.7256282,102.277485 75.8933944,99.4083872 69.7494882,93.6449796 C61.5412742,85.9451089 56.0213878,75.3509288 53.1898291,61.8624393 Z" id="Path-2" transform="translate(74.749829, 82.057439) rotate(-24.000000) translate(-74.749829, -82.057439) "></path>
                <path d="M69.2756052,24.579348 C84.5061244,25.2428332 96.2476924,29.2197726 104.500309,36.5101661 C109.601288,41.016391 111.783534,48.6305864 111.047046,59.3527525 C101.113392,61.7138629 93.2883382,60.3694491 87.5718838,55.3195112 C79.9347421,48.5728308 73.8359826,38.3261097 69.2756052,24.579348 Z" id="Path-2" transform="translate(90.231015, 42.530226) rotate(56.000000) translate(-90.231015, -42.530226) "></path>
                <path d="M33.3521633,145.027193 C46.4855989,146.872532 56.9729267,151.7494 64.8141468,159.657798 C69.66084,164.546015 71.8614255,172.46576 71.4159032,183.417036 C61.2312139,183.440999 53.4231259,180.713971 47.9916394,175.235951 C40.7352127,167.917356 35.8553873,157.84777 33.3521633,145.027193 Z" id="Path-2" transform="translate(52.412163, 164.222193) rotate(-51.000000) translate(-52.412163, -164.222193) "></path>
                <path d="M56.6877522,171.697207 C69.8211878,173.542545 80.3085156,178.419414 88.1497357,186.327812 C92.9964289,191.216028 95.1970143,199.135774 94.7514921,210.087049 C84.5668028,210.111012 76.7587148,207.383984 71.3272282,201.905964 C64.0708015,194.58737 59.1909762,184.517784 56.6877522,171.697207 Z" id="Path-2" transform="translate(75.747752, 190.892206) rotate(-65.000000) translate(-75.747752, -190.892206) "></path>
                <path d="M85.3082954,194.195098 C94.9964442,195.511687 102.732637,198.991172 108.516874,204.633553 C112.092137,208.121134 113.715444,213.771612 113.386796,221.584986 C105.87385,221.602083 100.114054,219.656438 96.1074059,215.748052 C90.7545535,210.526475 87.1548501,203.342158 85.3082954,194.195098 Z" id="Path-2" transform="translate(99.368296, 207.890098) rotate(-85.000000) translate(-99.368296, -207.890098) "></path>
                <path d="M128.523279,135.891093 C142.151563,139.08495 152.989163,144.533077 161.036082,152.235474 C166.009918,156.99636 168.781188,164.543866 169.34989,174.877993 C157.841389,174.697246 149.300154,171.939209 143.726183,166.603884 C136.279399,159.475927 131.211764,149.23833 128.523279,135.891093 Z" id="Path-2" transform="translate(148.936585, 155.384543) rotate(57.000000) translate(-148.936585, -155.384543) "></path>
                <path d="M208.003251,140.986458 C220.825485,141.856085 231.424696,146.179131 239.800885,153.955597 C246.041088,159.749011 249.128314,167.889247 249.062564,178.376305 C238.076351,178.399643 229.653775,175.74365 223.794837,170.408324 C215.967338,163.280368 210.703476,153.473079 208.003251,140.986458 Z" id="Path-2" transform="translate(228.533422, 159.681458) rotate(27.000000) translate(-228.533422, -159.681458) "></path>
                <path d="M134.249698,51.2828693 C147.071932,52.1524964 157.671143,56.4755428 166.047331,64.2520085 C172.287534,70.0454222 175.37476,78.1856581 175.30901,88.6727162 C164.322797,88.6960549 155.900222,86.0400614 150.041284,80.7047356 C142.213784,73.5767791 136.949922,63.7694903 134.249698,51.2828693 Z" id="Path-2" transform="translate(154.779868, 69.977869) rotate(27.000000) translate(-154.779868, -69.977869) "></path>
                <path d="M244.249698,136.282869 C257.071932,137.152496 267.671143,141.475543 276.047331,149.252008 C282.287534,155.045422 285.37476,163.185658 285.30901,173.672716 C274.322797,173.696055 265.900222,171.040061 260.041284,165.704736 C252.213784,158.576779 246.949922,148.76949 244.249698,136.282869 Z" id="Path-2" transform="translate(264.779868, 154.977869) rotate(56.000000) translate(-264.779868, -154.977869) "></path>
                <path d="M225.623185,100.858118 C237.50848,101.588196 247.333191,105.21752 255.097319,111.74609 C260.881541,116.609831 263.743179,123.443797 263.682233,132.24799 C253.498799,132.267583 245.691674,130.037799 240.260857,125.558637 C233.005324,119.574508 228.126101,111.341002 225.623185,100.858118 Z" id="Path-2" transform="translate(244.653186, 116.553118) rotate(56.000000) translate(-244.653186, -116.553118) "></path>
                <path d="M283.637306,123.391529 C290.028633,126.476674 295.994829,131.272831 301.535894,137.780002 C306.801041,143.963148 308.751401,152.44673 307.386973,163.230748 C304.197608,162.975832 299.887517,160.608793 294.4567,156.129631 C287.201167,150.145502 283.594703,139.232802 283.637306,123.391529 Z" id="Path-2" transform="translate(295.722562, 143.311139) rotate(56.000000) translate(-295.722562, -143.311139) "></path>
                <path d="M314.753432,104.850714 C325.883415,111.899816 333.067732,118.033722 336.306383,123.252431 C341.736075,132.001747 342.428077,139.375394 338.38239,145.373372 C334.814276,144.908828 330.314811,142.436975 324.883994,137.957813 C317.628461,131.973685 314.251608,120.937985 314.753432,104.850714 Z" id="Path-2" transform="translate(327.839099, 125.112043) rotate(56.000000) translate(-327.839099, -125.112043) "></path>
                <path d="M348.35478,77.7101043 C357.971673,84.1695363 364.399444,90.0086067 367.638095,95.2273158 C373.067786,103.976632 373.794055,112.04248 369.8169,119.424858 C361.944239,118.315645 356.111308,113.802585 352.318109,105.885677 C348.343705,97.5905731 347.022595,88.1987155 348.35478,77.7101043 Z" id="Path-2" transform="translate(360.096150, 98.567481) rotate(56.000000) translate(-360.096150, -98.567481) "></path>
                <path d="M378.396392,83.9558472 C388.013284,90.4152791 394.441056,96.2543496 397.679707,101.473059 C403.109398,110.222375 403.835667,118.288223 399.858512,125.670601 C391.985851,124.561388 386.15292,120.048327 382.359721,112.13142 C378.385317,103.836316 377.064207,94.4444583 378.396392,83.9558472 Z" id="Path-2" transform="translate(390.137761, 104.813224) rotate(86.000000) translate(-390.137761, -104.813224) "></path>
                <path d="M359.91923,112.810761 C369.536123,119.270193 375.963894,125.109263 379.202545,130.327972 C384.632237,139.077289 385.358505,147.143136 381.38135,154.525515 C373.508689,153.416301 367.675759,148.903241 363.882559,140.986334 C359.908155,132.69123 358.587045,123.299372 359.91923,112.810761 Z" id="Path-2" transform="translate(371.660600, 133.668138) rotate(122.000000) translate(-371.660600, -133.668138) "></path>
                <path d="M286.467137,84.9107605 C297.559073,90.4154152 304.923025,95.8393519 308.558993,101.182571 C314.6548,110.140632 315.397769,118.962174 310.787899,127.647199 C302.363068,127.877019 296.021378,123.939033 291.762828,115.833242 C287.300844,107.34023 285.535614,97.0327364 286.467137,84.9107605 Z" id="Path-2" transform="translate(299.995613, 106.283732) rotate(110.000000) translate(-299.995613, -106.283732) "></path>
                <path d="M297.948174,56.0269989 C309.789057,61.2215686 317.420992,66.6634777 320.843979,72.3527262 C326.381417,81.5563422 327.051695,90.547702 322.854812,99.3268054 C314.817315,99.5410444 308.610035,95.6739584 304.23297,87.7255475 C300.63136,81.1853005 298.536428,70.6191176 297.948174,56.0269989 Z" id="Path-2" transform="translate(311.758585, 77.681119) rotate(110.000000) translate(-311.758585, -77.681119) "></path>
                <path d="M337.434504,135.578022 C347.051396,141.88187 353.479168,147.580299 356.717818,152.673308 C362.14751,161.211886 362.873779,169.083457 358.896624,176.288021 C351.023963,175.205525 345.191032,170.801167 341.397832,163.074949 C337.423428,154.979644 336.102319,145.814001 337.434504,135.578022 Z" id="Path-2" transform="translate(349.175873, 155.933022) rotate(122.000000) translate(-349.175873, -155.933022) "></path>
                <path d="M307.974113,159.345355 C316.319756,164.690117 321.711236,169.47213 324.148555,173.691394 C328.121406,180.568829 328.326802,186.75009 324.764746,192.235177 C318.060628,189.355851 313.456211,185.23484 310.951496,179.872144 C308.596425,174.829844 307.603964,167.987581 307.974113,159.345355 Z" id="Path-2" transform="translate(317.594670, 175.790266) rotate(147.000000) translate(-317.594670, -175.790266) "></path>
                <path d="M294.928879,180.992411 C302.402168,185.652911 307.483038,190.221089 310.171487,194.696945 C314.553683,201.992628 314.900111,209.022433 311.210771,215.786359 C304.304043,213.88574 299.469284,210.091018 296.706493,204.402192 C294.108766,199.053248 293.516228,191.249987 294.928879,180.992411 Z" id="Path-2" transform="translate(303.961365, 198.389385) rotate(160.000000) translate(-303.961365, -198.389385) "></path>
                <path d="M139.623185,8.85811833 C152.445313,9.58819574 163.044437,13.2175198 171.420556,19.7460905 C177.660707,24.6098309 180.747908,31.4437973 180.682158,40.2479897 C169.696036,40.2675832 161.27353,38.0377989 155.414641,33.5586367 C147.587206,27.5745084 142.323388,19.3410023 139.623185,8.85811833 Z" id="Path-2" transform="translate(160.153186, 24.553118) rotate(34.000000) translate(-160.153186, -24.553118) "></path>
                <path d="M38.8043545,104.954724 C50.8680862,104.825909 60.7820161,108.025787 68.5461441,114.554358 C74.3303663,119.418098 77.1311916,126.053221 76.94862,134.459727 C67.6046047,135.92073 60.2171885,134.41165 54.7863714,129.932488 C47.5308391,123.94836 42.2035001,115.622438 38.8043545,104.954724 Z" id="Path-2" transform="translate(57.880677, 119.974860) rotate(44.000000) translate(-57.880677, -119.974860) "></path>
                <path d="M66.5616991,123.814388 C77.8224379,124.47469 87.1308743,127.757153 94.4870082,133.661776 C99.9672776,138.06068 102.678541,144.241512 102.620797,152.204271 C92.9724887,152.221992 85.5756167,150.205312 80.4301815,146.154232 C73.5559173,140.742018 68.9330898,133.295403 66.5616991,123.814388 Z" id="Path-2" transform="translate(84.591700, 138.009387) rotate(40.000000) translate(-84.591700, -138.009387) "></path>
                <path d="M95.3334522,96.8178813 C107.227023,98.7155667 116.851876,102.616721 124.20801,108.521344 C129.688279,112.920248 132.399542,119.10108 132.341799,127.063839 C122.69349,127.08156 115.296618,125.06488 110.151183,121.0138 C103.276919,115.601586 98.3376752,107.53628 95.3334522,96.8178813 Z" id="Path-2" transform="translate(113.838077, 111.940918) rotate(87.000000) translate(-113.838077, -111.940918) "></path>
                <path d="M175.566143,34.1477068 C187.138588,36.1083801 196.503569,40.1390213 203.661087,46.2396305 C208.993389,50.7845425 211.631447,57.1705281 211.575263,65.3975872 C202.187459,65.4158963 194.990303,63.332279 189.983795,59.1467353 C183.295136,53.5548792 178.489252,45.2218697 175.566143,34.1477068 Z" id="Path-2" transform="translate(193.571143, 49.772707) rotate(87.000000) translate(-193.571143, -49.772707) "></path>
                <path d="M170.613791,84.1471363 C181.114041,88.273121 189.220416,93.9340087 194.932914,101.129799 C199.188687,106.490614 200.840206,113.572972 199.887474,122.376872 C191.567157,121.514085 185.409122,118.614225 181.41337,113.677293 C176.075073,107.081586 172.475214,97.238201 170.613791,84.1471363 Z" id="Path-2" transform="translate(185.381337, 103.262004) rotate(83.000000) translate(-185.381337, -103.262004) "></path>
                <path d="M171.708738,122.090883 C182.883762,125.316869 191.327523,130.527758 197.040022,137.723549 C201.295794,143.084363 202.310684,151.012545 200.084691,161.508094 C191.153165,160.987322 184.689526,158.25847 180.693773,153.321538 C175.355477,146.725831 172.360465,136.315613 171.708738,122.090883 Z" id="Path-2" transform="translate(186.470059, 141.799489) rotate(83.000000) translate(-186.470059, -141.799489) "></path>
                <path d="M181.515287,151.636319 C189.383291,161.531532 194.259273,171.592766 196.143235,181.820023 C197.39913,188.637764 195.11394,195.697771 189.287664,203.000044 C183.341177,198.464437 179.3167,193.019615 177.214234,186.665577 C174.34039,177.980293 175.774074,166.303874 181.515287,151.636319 Z" id="Path-2" transform="translate(186.126766, 177.318182) rotate(83.000000) translate(-186.126766, -177.318182) "></path>
                <path d="M209.154218,61.6957326 C221.643043,64.2209682 231.219245,69.8586915 237.882822,78.6089026 C242.04514,84.0746083 243.373765,92.0853358 241.8687,102.641085 C232.278077,102.424242 225.439268,99.9065677 221.352271,95.0880611 C213.948893,86.3595924 209.882875,75.2288163 209.154218,61.6957326 Z" id="Path-2" transform="translate(225.811230, 82.168409) rotate(83.000000) translate(-225.811230, -82.168409) "></path>
                <path d="M110.906151,123.268462 C120.917779,123.905506 129.193665,127.072349 135.733811,132.768989 C140.606175,137.012948 143.016688,142.976068 142.96535,150.65835 C134.387291,150.675446 127.810926,148.729802 123.236255,144.821415 C117.124527,139.599839 113.014492,132.415521 110.906151,123.268462 Z" id="Path-2" transform="translate(126.936152, 136.963462) rotate(58.000000) translate(-126.936152, -136.963462) "></path>
                <path d="M208.248286,23.2033788 C218.626558,23.9174559 227.215503,27.0278694 234.015122,32.5346191 C240.054197,37.4254334 242.971714,43.3358639 242.767675,50.2659104 C233.934753,50.7119043 226.713485,48.5508326 221.10387,43.7826953 C214.975086,38.5732682 210.689892,31.713496 208.248286,23.2033788 Z" id="Path-2" transform="translate(225.512982, 36.763256) rotate(58.000000) translate(-225.512982, -36.763256) "></path>
                <path d="M99.8287582,53.3230084 C109.976794,55.587037 118.320885,59.5673717 124.861031,65.2640123 C129.733395,69.5079706 132.145387,76.1635581 132.097009,85.2307747 C124.445597,85.0811187 118.332556,83.0520975 113.757884,79.1437109 C107.646156,73.9221349 103.003114,65.315234 99.8287582,53.3230084 Z" id="Path-2" transform="translate(115.963240, 69.276892) rotate(58.000000) translate(-115.963240, -69.276892) "></path>
                <path d="M96.1434692,152.579689 C104.539924,153.398463 111.090237,156.656171 115.794409,162.352812 C119.298985,166.59677 120.435145,172.469025 119.202891,179.969576 C113.032897,179.986673 108.302674,178.041028 105.012221,174.132642 C100.6162,168.911066 97.6599491,161.726748 96.1434692,152.579689 Z" id="Path-2" transform="translate(107.913602, 166.274688) rotate(15.000000) translate(-107.913602, -166.274688) "></path>
                <path d="M245.885372,60.9363717 C259.019778,61.7594823 269.877039,65.8512879 278.457155,73.2117886 C284.849283,78.6953112 288.011671,86.4001239 287.94432,96.3262268 C276.690636,96.3483171 268.063003,93.8343933 262.061422,88.7844554 C254.043354,82.037775 248.651337,72.7550804 245.885372,60.9363717 Z" id="Path-2" transform="translate(266.915373, 78.631371) rotate(61.000000) translate(-266.915373, -78.631371) "></path>
                <path d="M274.641941,24.2769594 C287.776347,25.10007 298.633608,29.1918756 307.213724,36.5523763 C313.605852,42.0358989 316.768241,49.7407116 316.700889,59.6668145 C305.447205,59.6889048 296.819572,57.174981 290.817991,52.1250431 C282.799923,45.3783626 277.407906,36.0956681 274.641941,24.2769594 Z" id="Path-2" transform="translate(295.671942, 41.971959) rotate(78.000000) translate(-295.671942, -41.971959) "></path>
                <path d="M237.731733,15.0365796 C250.365257,16.1901948 259.484379,19.2938081 265.089097,24.3474197 C270.222216,28.9758041 272.540918,35.1682951 272.045204,42.9248925 C262.894348,43.3781354 255.960239,41.4365226 251.242876,37.1000543 C244.940514,31.3065641 240.4368,23.9520726 237.731733,15.0365796 Z" id="Path-2" transform="translate(254.921210, 29.012903) rotate(78.000000) translate(-254.921210, -29.012903) "></path>
            </g>
        </g>
    </g>
</svg>